<mxfile host="app.diagrams.net" modified="2023-12-22T06:56:36.361Z" agent="Mozilla/5.0 (Windows NT 10.0; Win64; x64) AppleWebKit/537.36 (KHTML, like Gecko) Chrome/120.0.0.0 Safari/537.36" version="22.1.11" etag="9AsrGEjCR-U-9qbHZZrm" type="github">
  <diagram name="Page-1" id="B9NZZVmZMHECMpWbTY0p">
    <mxGraphModel>
      <root>
        <mxCell id="0" />
        <mxCell id="1" parent="0" />
      </root>
    </mxGraphModel>
  </diagram>
</mxfile>
